<mxfile host="app.diagrams.net" modified="2024-06-28T13:24:04.977Z" agent="Mozilla/5.0 (Windows NT 10.0; Win64; x64) AppleWebKit/537.36 (KHTML, like Gecko) Chrome/126.0.0.0 Safari/537.36" etag="xjLhTsWd_pPRWBfWtnN_" version="24.6.4" type="device">
  <diagram name="Page-1" id="J80VfNnMjxVtFNAfuCH4">
    <mxGraphModel dx="2803" dy="2113" grid="1" gridSize="10" guides="1" tooltips="1" connect="1" arrows="1" fold="1" page="1" pageScale="1" pageWidth="850" pageHeight="1100" math="0" shadow="0">
      <root>
        <mxCell id="0" />
        <mxCell id="1" parent="0" />
        <mxCell id="JhmMYMkdNSG2Nu4x-xCR-116" value="" style="rounded=1;whiteSpace=wrap;html=1;" vertex="1" parent="1">
          <mxGeometry x="382.5" y="-440" width="237.5" height="220" as="geometry" />
        </mxCell>
        <mxCell id="JhmMYMkdNSG2Nu4x-xCR-80" value="" style="rounded=1;whiteSpace=wrap;html=1;dashed=1;dashPattern=1 1;" vertex="1" parent="1">
          <mxGeometry x="110" y="690" width="780" height="220" as="geometry" />
        </mxCell>
        <mxCell id="JhmMYMkdNSG2Nu4x-xCR-71" value="" style="rounded=1;whiteSpace=wrap;html=1;dashed=1;" vertex="1" parent="1">
          <mxGeometry x="30" y="530" width="960" height="90" as="geometry" />
        </mxCell>
        <mxCell id="JhmMYMkdNSG2Nu4x-xCR-48" value="" style="edgeStyle=orthogonalEdgeStyle;rounded=0;orthogonalLoop=1;jettySize=auto;html=1;entryX=0;entryY=0.5;entryDx=0;entryDy=0;" edge="1" parent="1" source="JhmMYMkdNSG2Nu4x-xCR-36" target="JhmMYMkdNSG2Nu4x-xCR-37">
          <mxGeometry relative="1" as="geometry" />
        </mxCell>
        <mxCell id="JhmMYMkdNSG2Nu4x-xCR-36" value="" style="rounded=1;whiteSpace=wrap;html=1;dashed=1;dashPattern=1 1;" vertex="1" parent="1">
          <mxGeometry x="235" y="-90" width="230" height="550" as="geometry" />
        </mxCell>
        <mxCell id="JhmMYMkdNSG2Nu4x-xCR-30" value="" style="rounded=1;whiteSpace=wrap;html=1;dashed=1;dashPattern=8 8;" vertex="1" parent="1">
          <mxGeometry x="270" y="240" width="160" height="200" as="geometry" />
        </mxCell>
        <mxCell id="JhmMYMkdNSG2Nu4x-xCR-11" value="" style="edgeStyle=orthogonalEdgeStyle;rounded=0;orthogonalLoop=1;jettySize=auto;html=1;" edge="1" parent="1" source="JhmMYMkdNSG2Nu4x-xCR-4" target="JhmMYMkdNSG2Nu4x-xCR-10">
          <mxGeometry relative="1" as="geometry" />
        </mxCell>
        <mxCell id="JhmMYMkdNSG2Nu4x-xCR-4" value="Order Request API" style="rounded=1;whiteSpace=wrap;html=1;fillColor=#dae8fc;strokeColor=#6c8ebf;" vertex="1" parent="1">
          <mxGeometry x="-180" y="160" width="120" height="60" as="geometry" />
        </mxCell>
        <mxCell id="JhmMYMkdNSG2Nu4x-xCR-8" value="Order Status API" style="rounded=1;whiteSpace=wrap;html=1;fillColor=#dae8fc;strokeColor=#6c8ebf;" vertex="1" parent="1">
          <mxGeometry x="430" y="-330" width="120" height="60" as="geometry" />
        </mxCell>
        <mxCell id="JhmMYMkdNSG2Nu4x-xCR-10" value="" style="rounded=1;whiteSpace=wrap;html=1;dashed=1;" vertex="1" parent="1">
          <mxGeometry x="30" y="-90" width="150" height="560" as="geometry" />
        </mxCell>
        <mxCell id="JhmMYMkdNSG2Nu4x-xCR-13" value="" style="rounded=0;whiteSpace=wrap;html=1;fillColor=#fff2cc;strokeColor=#d6b656;" vertex="1" parent="1">
          <mxGeometry x="45" y="-70" width="120" height="230" as="geometry" />
        </mxCell>
        <mxCell id="JhmMYMkdNSG2Nu4x-xCR-14" value="" style="rounded=0;whiteSpace=wrap;html=1;fillColor=#fff2cc;strokeColor=#d6b656;" vertex="1" parent="1">
          <mxGeometry x="45" y="230" width="120" height="230" as="geometry" />
        </mxCell>
        <mxCell id="JhmMYMkdNSG2Nu4x-xCR-15" value="Kafka Cluster" style="text;html=1;align=center;verticalAlign=middle;whiteSpace=wrap;rounded=0;" vertex="1" parent="1">
          <mxGeometry x="70" y="-130" width="60" height="30" as="geometry" />
        </mxCell>
        <mxCell id="JhmMYMkdNSG2Nu4x-xCR-16" value="Broker 1" style="text;html=1;align=center;verticalAlign=middle;whiteSpace=wrap;rounded=0;" vertex="1" parent="1">
          <mxGeometry x="75" y="-90" width="60" height="30" as="geometry" />
        </mxCell>
        <mxCell id="JhmMYMkdNSG2Nu4x-xCR-17" value="Broker 2" style="text;html=1;align=center;verticalAlign=middle;whiteSpace=wrap;rounded=0;" vertex="1" parent="1">
          <mxGeometry x="70" y="210" width="60" height="30" as="geometry" />
        </mxCell>
        <mxCell id="JhmMYMkdNSG2Nu4x-xCR-18" value="Topic A" style="text;html=1;align=center;verticalAlign=middle;whiteSpace=wrap;rounded=0;" vertex="1" parent="1">
          <mxGeometry x="45" y="-70" width="60" height="30" as="geometry" />
        </mxCell>
        <mxCell id="JhmMYMkdNSG2Nu4x-xCR-19" value="Topic A" style="text;html=1;align=center;verticalAlign=middle;whiteSpace=wrap;rounded=0;" vertex="1" parent="1">
          <mxGeometry x="45" y="230" width="60" height="30" as="geometry" />
        </mxCell>
        <mxCell id="JhmMYMkdNSG2Nu4x-xCR-20" value="Partion 0" style="rounded=0;whiteSpace=wrap;html=1;fillColor=#fad7ac;strokeColor=#b46504;" vertex="1" parent="1">
          <mxGeometry x="62.5" y="-40" width="85" height="40" as="geometry" />
        </mxCell>
        <mxCell id="JhmMYMkdNSG2Nu4x-xCR-21" value="Partion 1" style="rounded=0;whiteSpace=wrap;html=1;fillColor=#fad7ac;strokeColor=#b46504;" vertex="1" parent="1">
          <mxGeometry x="62.5" y="320" width="85" height="40" as="geometry" />
        </mxCell>
        <mxCell id="JhmMYMkdNSG2Nu4x-xCR-23" value="Partion 2" style="rounded=0;whiteSpace=wrap;html=1;fillColor=#fad7ac;strokeColor=#b46504;" vertex="1" parent="1">
          <mxGeometry x="62.5" y="80" width="85" height="40" as="geometry" />
        </mxCell>
        <mxCell id="JhmMYMkdNSG2Nu4x-xCR-25" value="Order Processing Consumer" style="rounded=1;whiteSpace=wrap;html=1;fillColor=#dae8fc;strokeColor=#6c8ebf;" vertex="1" parent="1">
          <mxGeometry x="290" y="270" width="120" height="60" as="geometry" />
        </mxCell>
        <mxCell id="JhmMYMkdNSG2Nu4x-xCR-26" value="Order Processing Consumer" style="rounded=1;whiteSpace=wrap;html=1;fillColor=#dae8fc;strokeColor=#6c8ebf;" vertex="1" parent="1">
          <mxGeometry x="290" y="350" width="120" height="60" as="geometry" />
        </mxCell>
        <mxCell id="JhmMYMkdNSG2Nu4x-xCR-28" value="" style="rounded=1;whiteSpace=wrap;html=1;dashed=1;dashPattern=8 8;" vertex="1" parent="1">
          <mxGeometry x="270" y="-50" width="160" height="200" as="geometry" />
        </mxCell>
        <mxCell id="JhmMYMkdNSG2Nu4x-xCR-24" value="Order Processing Consumer" style="rounded=1;whiteSpace=wrap;html=1;fillColor=#dae8fc;strokeColor=#6c8ebf;" vertex="1" parent="1">
          <mxGeometry x="290" y="60" width="120" height="60" as="geometry" />
        </mxCell>
        <mxCell id="JhmMYMkdNSG2Nu4x-xCR-27" value="Order Processing Consumer" style="rounded=1;whiteSpace=wrap;html=1;fillColor=#dae8fc;strokeColor=#6c8ebf;" vertex="1" parent="1">
          <mxGeometry x="290" y="-20" width="120" height="60" as="geometry" />
        </mxCell>
        <mxCell id="JhmMYMkdNSG2Nu4x-xCR-29" value="" style="endArrow=classic;html=1;rounded=0;entryX=1;entryY=0.5;entryDx=0;entryDy=0;exitX=0;exitY=0.5;exitDx=0;exitDy=0;" edge="1" parent="1" source="JhmMYMkdNSG2Nu4x-xCR-27" target="JhmMYMkdNSG2Nu4x-xCR-20">
          <mxGeometry width="50" height="50" relative="1" as="geometry">
            <mxPoint x="400" y="230" as="sourcePoint" />
            <mxPoint x="450" y="180" as="targetPoint" />
          </mxGeometry>
        </mxCell>
        <mxCell id="JhmMYMkdNSG2Nu4x-xCR-31" value="" style="endArrow=classic;html=1;rounded=0;entryX=1;entryY=0.5;entryDx=0;entryDy=0;exitX=0;exitY=0.5;exitDx=0;exitDy=0;" edge="1" parent="1" source="JhmMYMkdNSG2Nu4x-xCR-24" target="JhmMYMkdNSG2Nu4x-xCR-23">
          <mxGeometry width="50" height="50" relative="1" as="geometry">
            <mxPoint x="300" y="20" as="sourcePoint" />
            <mxPoint x="158" y="-10" as="targetPoint" />
          </mxGeometry>
        </mxCell>
        <mxCell id="JhmMYMkdNSG2Nu4x-xCR-33" value="" style="endArrow=classic;html=1;rounded=0;entryX=1;entryY=0.5;entryDx=0;entryDy=0;exitX=0;exitY=0.5;exitDx=0;exitDy=0;" edge="1" parent="1" source="JhmMYMkdNSG2Nu4x-xCR-25" target="JhmMYMkdNSG2Nu4x-xCR-21">
          <mxGeometry width="50" height="50" relative="1" as="geometry">
            <mxPoint x="300" y="310" as="sourcePoint" />
            <mxPoint x="158" y="410" as="targetPoint" />
          </mxGeometry>
        </mxCell>
        <mxCell id="JhmMYMkdNSG2Nu4x-xCR-34" value="" style="endArrow=classic;html=1;rounded=0;entryX=1;entryY=0.5;entryDx=0;entryDy=0;exitX=0;exitY=0.5;exitDx=0;exitDy=0;" edge="1" parent="1" source="JhmMYMkdNSG2Nu4x-xCR-27" target="JhmMYMkdNSG2Nu4x-xCR-21">
          <mxGeometry width="50" height="50" relative="1" as="geometry">
            <mxPoint x="300" y="310" as="sourcePoint" />
            <mxPoint x="158" y="350" as="targetPoint" />
          </mxGeometry>
        </mxCell>
        <mxCell id="JhmMYMkdNSG2Nu4x-xCR-35" value="" style="endArrow=classic;html=1;rounded=0;entryX=1;entryY=0.5;entryDx=0;entryDy=0;exitX=0;exitY=0.5;exitDx=0;exitDy=0;" edge="1" parent="1" source="JhmMYMkdNSG2Nu4x-xCR-26" target="JhmMYMkdNSG2Nu4x-xCR-23">
          <mxGeometry width="50" height="50" relative="1" as="geometry">
            <mxPoint x="300" y="100" as="sourcePoint" />
            <mxPoint x="158" y="110" as="targetPoint" />
          </mxGeometry>
        </mxCell>
        <mxCell id="JhmMYMkdNSG2Nu4x-xCR-37" value="" style="rounded=1;whiteSpace=wrap;html=1;dashed=1;" vertex="1" parent="1">
          <mxGeometry x="540" y="-95" width="150" height="560" as="geometry" />
        </mxCell>
        <mxCell id="JhmMYMkdNSG2Nu4x-xCR-38" value="" style="rounded=0;whiteSpace=wrap;html=1;fillColor=#fff2cc;strokeColor=#d6b656;" vertex="1" parent="1">
          <mxGeometry x="555" y="-70" width="120" height="230" as="geometry" />
        </mxCell>
        <mxCell id="JhmMYMkdNSG2Nu4x-xCR-39" value="" style="rounded=0;whiteSpace=wrap;html=1;fillColor=#fff2cc;strokeColor=#d6b656;" vertex="1" parent="1">
          <mxGeometry x="555" y="230" width="120" height="230" as="geometry" />
        </mxCell>
        <mxCell id="JhmMYMkdNSG2Nu4x-xCR-40" value="Kafka Cluster" style="text;html=1;align=center;verticalAlign=middle;whiteSpace=wrap;rounded=0;" vertex="1" parent="1">
          <mxGeometry x="580" y="-130" width="60" height="30" as="geometry" />
        </mxCell>
        <mxCell id="JhmMYMkdNSG2Nu4x-xCR-41" value="Broker 1" style="text;html=1;align=center;verticalAlign=middle;whiteSpace=wrap;rounded=0;" vertex="1" parent="1">
          <mxGeometry x="585" y="-90" width="60" height="30" as="geometry" />
        </mxCell>
        <mxCell id="JhmMYMkdNSG2Nu4x-xCR-42" value="Broker 2" style="text;html=1;align=center;verticalAlign=middle;whiteSpace=wrap;rounded=0;" vertex="1" parent="1">
          <mxGeometry x="580" y="210" width="60" height="30" as="geometry" />
        </mxCell>
        <mxCell id="JhmMYMkdNSG2Nu4x-xCR-43" value="Topic B" style="text;html=1;align=center;verticalAlign=middle;whiteSpace=wrap;rounded=0;" vertex="1" parent="1">
          <mxGeometry x="555" y="-70" width="60" height="30" as="geometry" />
        </mxCell>
        <mxCell id="JhmMYMkdNSG2Nu4x-xCR-44" value="Topic B" style="text;html=1;align=center;verticalAlign=middle;whiteSpace=wrap;rounded=0;" vertex="1" parent="1">
          <mxGeometry x="555" y="230" width="60" height="30" as="geometry" />
        </mxCell>
        <mxCell id="JhmMYMkdNSG2Nu4x-xCR-45" value="Partion 0" style="rounded=0;whiteSpace=wrap;html=1;fillColor=#fad7ac;strokeColor=#b46504;" vertex="1" parent="1">
          <mxGeometry x="572.5" y="-40" width="85" height="40" as="geometry" />
        </mxCell>
        <mxCell id="JhmMYMkdNSG2Nu4x-xCR-46" value="Partion 1" style="rounded=0;whiteSpace=wrap;html=1;fillColor=#fad7ac;strokeColor=#b46504;" vertex="1" parent="1">
          <mxGeometry x="572.5" y="320" width="85" height="40" as="geometry" />
        </mxCell>
        <mxCell id="JhmMYMkdNSG2Nu4x-xCR-47" value="Partion 2" style="rounded=0;whiteSpace=wrap;html=1;fillColor=#fad7ac;strokeColor=#b46504;" vertex="1" parent="1">
          <mxGeometry x="572.5" y="80" width="85" height="40" as="geometry" />
        </mxCell>
        <mxCell id="JhmMYMkdNSG2Nu4x-xCR-49" value="" style="rounded=1;whiteSpace=wrap;html=1;dashed=1;dashPattern=1 1;" vertex="1" parent="1">
          <mxGeometry x="760" y="-95" width="230" height="550" as="geometry" />
        </mxCell>
        <mxCell id="JhmMYMkdNSG2Nu4x-xCR-50" value="" style="rounded=1;whiteSpace=wrap;html=1;dashed=1;dashPattern=8 8;" vertex="1" parent="1">
          <mxGeometry x="795" y="235" width="160" height="200" as="geometry" />
        </mxCell>
        <mxCell id="JhmMYMkdNSG2Nu4x-xCR-51" value="Webhook Consumer" style="rounded=1;whiteSpace=wrap;html=1;fillColor=#dae8fc;strokeColor=#6c8ebf;" vertex="1" parent="1">
          <mxGeometry x="815" y="305" width="120" height="60" as="geometry" />
        </mxCell>
        <mxCell id="JhmMYMkdNSG2Nu4x-xCR-53" value="" style="rounded=1;whiteSpace=wrap;html=1;dashed=1;dashPattern=8 8;" vertex="1" parent="1">
          <mxGeometry x="795" y="-55" width="160" height="200" as="geometry" />
        </mxCell>
        <mxCell id="JhmMYMkdNSG2Nu4x-xCR-54" value="Webhook Consumer" style="rounded=1;whiteSpace=wrap;html=1;fillColor=#dae8fc;strokeColor=#6c8ebf;" vertex="1" parent="1">
          <mxGeometry x="815" y="55" width="120" height="60" as="geometry" />
        </mxCell>
        <mxCell id="JhmMYMkdNSG2Nu4x-xCR-55" value="Webhook Consumer" style="rounded=1;whiteSpace=wrap;html=1;fillColor=#dae8fc;strokeColor=#6c8ebf;" vertex="1" parent="1">
          <mxGeometry x="815" y="-25" width="120" height="60" as="geometry" />
        </mxCell>
        <mxCell id="JhmMYMkdNSG2Nu4x-xCR-56" value="" style="endArrow=classic;html=1;rounded=0;exitX=0;exitY=0.5;exitDx=0;exitDy=0;entryX=1;entryY=0.5;entryDx=0;entryDy=0;" edge="1" parent="1" source="JhmMYMkdNSG2Nu4x-xCR-55" target="JhmMYMkdNSG2Nu4x-xCR-45">
          <mxGeometry width="50" height="50" relative="1" as="geometry">
            <mxPoint x="400" y="130" as="sourcePoint" />
            <mxPoint x="450" y="80" as="targetPoint" />
          </mxGeometry>
        </mxCell>
        <mxCell id="JhmMYMkdNSG2Nu4x-xCR-57" value="" style="endArrow=classic;html=1;rounded=0;exitX=0;exitY=0.5;exitDx=0;exitDy=0;entryX=1;entryY=0.5;entryDx=0;entryDy=0;" edge="1" parent="1" source="JhmMYMkdNSG2Nu4x-xCR-55" target="JhmMYMkdNSG2Nu4x-xCR-46">
          <mxGeometry width="50" height="50" relative="1" as="geometry">
            <mxPoint x="825" y="15" as="sourcePoint" />
            <mxPoint x="638" y="-10" as="targetPoint" />
          </mxGeometry>
        </mxCell>
        <mxCell id="JhmMYMkdNSG2Nu4x-xCR-58" value="" style="endArrow=classic;html=1;rounded=0;exitX=0;exitY=0.5;exitDx=0;exitDy=0;entryX=1;entryY=0.5;entryDx=0;entryDy=0;" edge="1" parent="1" source="JhmMYMkdNSG2Nu4x-xCR-54" target="JhmMYMkdNSG2Nu4x-xCR-47">
          <mxGeometry width="50" height="50" relative="1" as="geometry">
            <mxPoint x="825" y="15" as="sourcePoint" />
            <mxPoint x="638" y="350" as="targetPoint" />
          </mxGeometry>
        </mxCell>
        <mxCell id="JhmMYMkdNSG2Nu4x-xCR-59" value="" style="endArrow=classic;html=1;rounded=0;exitX=0;exitY=0.5;exitDx=0;exitDy=0;entryX=1;entryY=0.5;entryDx=0;entryDy=0;" edge="1" parent="1" source="JhmMYMkdNSG2Nu4x-xCR-51" target="JhmMYMkdNSG2Nu4x-xCR-46">
          <mxGeometry width="50" height="50" relative="1" as="geometry">
            <mxPoint x="825" y="15" as="sourcePoint" />
            <mxPoint x="638" y="350" as="targetPoint" />
          </mxGeometry>
        </mxCell>
        <mxCell id="JhmMYMkdNSG2Nu4x-xCR-72" value="Kafka Cluster" style="text;html=1;align=center;verticalAlign=middle;whiteSpace=wrap;rounded=0;" vertex="1" parent="1">
          <mxGeometry x="480" y="620" width="60" height="30" as="geometry" />
        </mxCell>
        <mxCell id="JhmMYMkdNSG2Nu4x-xCR-73" value="" style="rounded=0;whiteSpace=wrap;html=1;fillColor=#fff2cc;strokeColor=#d6b656;" vertex="1" parent="1">
          <mxGeometry x="60" y="540" width="400" height="70" as="geometry" />
        </mxCell>
        <mxCell id="JhmMYMkdNSG2Nu4x-xCR-74" value="" style="rounded=0;whiteSpace=wrap;html=1;fillColor=#fff2cc;strokeColor=#d6b656;" vertex="1" parent="1">
          <mxGeometry x="570" y="540" width="400" height="70" as="geometry" />
        </mxCell>
        <mxCell id="JhmMYMkdNSG2Nu4x-xCR-75" value="Topic C" style="text;html=1;align=center;verticalAlign=middle;whiteSpace=wrap;rounded=0;" vertex="1" parent="1">
          <mxGeometry x="60" y="540" width="60" height="30" as="geometry" />
        </mxCell>
        <mxCell id="JhmMYMkdNSG2Nu4x-xCR-76" value="Topic C" style="text;html=1;align=center;verticalAlign=middle;whiteSpace=wrap;rounded=0;" vertex="1" parent="1">
          <mxGeometry x="570" y="540" width="60" height="30" as="geometry" />
        </mxCell>
        <mxCell id="JhmMYMkdNSG2Nu4x-xCR-77" value="Partion 0" style="rounded=0;whiteSpace=wrap;html=1;fillColor=#fad7ac;strokeColor=#b46504;" vertex="1" parent="1">
          <mxGeometry x="135" y="555" width="85" height="40" as="geometry" />
        </mxCell>
        <mxCell id="JhmMYMkdNSG2Nu4x-xCR-78" value="Partion 1" style="rounded=0;whiteSpace=wrap;html=1;fillColor=#fad7ac;strokeColor=#b46504;" vertex="1" parent="1">
          <mxGeometry x="645" y="555" width="85" height="40" as="geometry" />
        </mxCell>
        <mxCell id="JhmMYMkdNSG2Nu4x-xCR-79" value="Partion 2" style="rounded=0;whiteSpace=wrap;html=1;fillColor=#fad7ac;strokeColor=#b46504;" vertex="1" parent="1">
          <mxGeometry x="297.5" y="555" width="85" height="40" as="geometry" />
        </mxCell>
        <mxCell id="JhmMYMkdNSG2Nu4x-xCR-82" value="" style="rounded=1;whiteSpace=wrap;html=1;dashed=1;dashPattern=8 8;" vertex="1" parent="1">
          <mxGeometry x="520" y="740" width="332.5" height="120" as="geometry" />
        </mxCell>
        <mxCell id="JhmMYMkdNSG2Nu4x-xCR-83" value="Order Error Consumer" style="rounded=1;whiteSpace=wrap;html=1;fillColor=#dae8fc;strokeColor=#6c8ebf;" vertex="1" parent="1">
          <mxGeometry x="550" y="770" width="120" height="60" as="geometry" />
        </mxCell>
        <mxCell id="JhmMYMkdNSG2Nu4x-xCR-85" value="" style="rounded=1;whiteSpace=wrap;html=1;dashed=1;dashPattern=8 8;" vertex="1" parent="1">
          <mxGeometry x="135" y="740" width="332.5" height="120" as="geometry" />
        </mxCell>
        <mxCell id="JhmMYMkdNSG2Nu4x-xCR-84" value="Order Error Consumer" style="rounded=1;whiteSpace=wrap;html=1;fillColor=#dae8fc;strokeColor=#6c8ebf;" vertex="1" parent="1">
          <mxGeometry x="710" y="770" width="120" height="60" as="geometry" />
        </mxCell>
        <mxCell id="JhmMYMkdNSG2Nu4x-xCR-7" value="Order Error Consumer" style="rounded=1;whiteSpace=wrap;html=1;fillColor=#dae8fc;strokeColor=#6c8ebf;" vertex="1" parent="1">
          <mxGeometry x="240" y="770" width="120" height="60" as="geometry" />
        </mxCell>
        <mxCell id="JhmMYMkdNSG2Nu4x-xCR-86" value="" style="endArrow=classic;html=1;rounded=0;entryX=0.5;entryY=1;entryDx=0;entryDy=0;exitX=0.5;exitY=0;exitDx=0;exitDy=0;" edge="1" parent="1" source="JhmMYMkdNSG2Nu4x-xCR-7" target="JhmMYMkdNSG2Nu4x-xCR-77">
          <mxGeometry width="50" height="50" relative="1" as="geometry">
            <mxPoint x="360" y="650" as="sourcePoint" />
            <mxPoint x="218" y="690" as="targetPoint" />
          </mxGeometry>
        </mxCell>
        <mxCell id="JhmMYMkdNSG2Nu4x-xCR-87" value="" style="endArrow=classic;html=1;rounded=0;entryX=0.641;entryY=0.975;entryDx=0;entryDy=0;exitX=0.5;exitY=0;exitDx=0;exitDy=0;entryPerimeter=0;" edge="1" parent="1" source="JhmMYMkdNSG2Nu4x-xCR-83" target="JhmMYMkdNSG2Nu4x-xCR-79">
          <mxGeometry width="50" height="50" relative="1" as="geometry">
            <mxPoint x="502" y="795" as="sourcePoint" />
            <mxPoint x="380" y="620" as="targetPoint" />
          </mxGeometry>
        </mxCell>
        <mxCell id="JhmMYMkdNSG2Nu4x-xCR-88" value="" style="endArrow=classic;html=1;rounded=0;entryX=0.5;entryY=1;entryDx=0;entryDy=0;exitX=0.5;exitY=0;exitDx=0;exitDy=0;" edge="1" parent="1" source="JhmMYMkdNSG2Nu4x-xCR-84" target="JhmMYMkdNSG2Nu4x-xCR-78">
          <mxGeometry width="50" height="50" relative="1" as="geometry">
            <mxPoint x="955" y="796" as="sourcePoint" />
            <mxPoint x="697" y="620" as="targetPoint" />
          </mxGeometry>
        </mxCell>
        <mxCell id="JhmMYMkdNSG2Nu4x-xCR-90" value="" style="endArrow=classic;html=1;rounded=0;entryX=0.5;entryY=1;entryDx=0;entryDy=0;exitX=0.5;exitY=0;exitDx=0;exitDy=0;" edge="1" parent="1" source="JhmMYMkdNSG2Nu4x-xCR-7" target="JhmMYMkdNSG2Nu4x-xCR-78">
          <mxGeometry width="50" height="50" relative="1" as="geometry">
            <mxPoint x="615" y="785" as="sourcePoint" />
            <mxPoint x="533" y="610" as="targetPoint" />
          </mxGeometry>
        </mxCell>
        <mxCell id="JhmMYMkdNSG2Nu4x-xCR-91" value="Order Request API" style="rounded=1;whiteSpace=wrap;html=1;fillColor=#dae8fc;strokeColor=#6c8ebf;" vertex="1" parent="1">
          <mxGeometry x="-170" y="170" width="120" height="60" as="geometry" />
        </mxCell>
        <mxCell id="JhmMYMkdNSG2Nu4x-xCR-92" value="Order Request API" style="rounded=1;whiteSpace=wrap;html=1;fillColor=#dae8fc;strokeColor=#6c8ebf;" vertex="1" parent="1">
          <mxGeometry x="-160" y="180" width="120" height="60" as="geometry" />
        </mxCell>
        <mxCell id="JhmMYMkdNSG2Nu4x-xCR-93" value="Order Status API" style="rounded=1;whiteSpace=wrap;html=1;fillColor=#dae8fc;strokeColor=#6c8ebf;" vertex="1" parent="1">
          <mxGeometry x="440" y="-320" width="120" height="60" as="geometry" />
        </mxCell>
        <mxCell id="JhmMYMkdNSG2Nu4x-xCR-94" value="Order Status API" style="rounded=1;whiteSpace=wrap;html=1;fillColor=#dae8fc;strokeColor=#6c8ebf;" vertex="1" parent="1">
          <mxGeometry x="450" y="-310" width="120" height="60" as="geometry" />
        </mxCell>
        <mxCell id="JhmMYMkdNSG2Nu4x-xCR-95" value="" style="endArrow=classic;html=1;rounded=0;entryX=0.5;entryY=1;entryDx=0;entryDy=0;exitX=0.5;exitY=0;exitDx=0;exitDy=0;" edge="1" parent="1" source="JhmMYMkdNSG2Nu4x-xCR-36" target="JhmMYMkdNSG2Nu4x-xCR-94">
          <mxGeometry width="50" height="50" relative="1" as="geometry">
            <mxPoint x="340" y="30" as="sourcePoint" />
            <mxPoint x="390" y="-20" as="targetPoint" />
          </mxGeometry>
        </mxCell>
        <mxCell id="JhmMYMkdNSG2Nu4x-xCR-96" value="" style="endArrow=classic;html=1;rounded=0;entryX=0.5;entryY=1;entryDx=0;entryDy=0;exitX=0.5;exitY=0;exitDx=0;exitDy=0;" edge="1" parent="1" source="JhmMYMkdNSG2Nu4x-xCR-49" target="JhmMYMkdNSG2Nu4x-xCR-94">
          <mxGeometry width="50" height="50" relative="1" as="geometry">
            <mxPoint x="360" y="-80" as="sourcePoint" />
            <mxPoint x="520" y="-240" as="targetPoint" />
          </mxGeometry>
        </mxCell>
        <mxCell id="JhmMYMkdNSG2Nu4x-xCR-97" value="" style="endArrow=classic;html=1;rounded=0;entryX=0;entryY=0.5;entryDx=0;entryDy=0;exitX=0.5;exitY=0;exitDx=0;exitDy=0;" edge="1" parent="1" source="JhmMYMkdNSG2Nu4x-xCR-4" target="JhmMYMkdNSG2Nu4x-xCR-8">
          <mxGeometry width="50" height="50" relative="1" as="geometry">
            <mxPoint x="360" y="-80" as="sourcePoint" />
            <mxPoint x="520" y="-240" as="targetPoint" />
            <Array as="points">
              <mxPoint x="-120" y="-300" />
            </Array>
          </mxGeometry>
        </mxCell>
        <mxCell id="JhmMYMkdNSG2Nu4x-xCR-98" value="" style="endArrow=classic;html=1;rounded=0;exitX=1;exitY=0.5;exitDx=0;exitDy=0;entryX=1;entryY=0.5;entryDx=0;entryDy=0;" edge="1" parent="1" source="JhmMYMkdNSG2Nu4x-xCR-80" target="JhmMYMkdNSG2Nu4x-xCR-94">
          <mxGeometry width="50" height="50" relative="1" as="geometry">
            <mxPoint x="340" y="530" as="sourcePoint" />
            <mxPoint x="390" y="480" as="targetPoint" />
            <Array as="points">
              <mxPoint x="1070" y="800" />
              <mxPoint x="1080" y="-280" />
            </Array>
          </mxGeometry>
        </mxCell>
        <mxCell id="JhmMYMkdNSG2Nu4x-xCR-99" value="Client Webhook Service" style="rounded=1;whiteSpace=wrap;html=1;" vertex="1" parent="1">
          <mxGeometry x="1200" y="150" width="120" height="60" as="geometry" />
        </mxCell>
        <mxCell id="JhmMYMkdNSG2Nu4x-xCR-100" value="" style="endArrow=classic;html=1;rounded=0;exitX=1;exitY=0.5;exitDx=0;exitDy=0;entryX=0;entryY=0.5;entryDx=0;entryDy=0;" edge="1" parent="1" source="JhmMYMkdNSG2Nu4x-xCR-49" target="JhmMYMkdNSG2Nu4x-xCR-99">
          <mxGeometry width="50" height="50" relative="1" as="geometry">
            <mxPoint x="1100" y="230" as="sourcePoint" />
            <mxPoint x="1150" y="180" as="targetPoint" />
          </mxGeometry>
        </mxCell>
        <mxCell id="JhmMYMkdNSG2Nu4x-xCR-101" value="Group consumer 1" style="text;html=1;align=center;verticalAlign=middle;whiteSpace=wrap;rounded=0;" vertex="1" parent="1">
          <mxGeometry x="290" y="-80" width="110" height="30" as="geometry" />
        </mxCell>
        <mxCell id="JhmMYMkdNSG2Nu4x-xCR-102" value="Group consumer 1" style="text;html=1;align=center;verticalAlign=middle;whiteSpace=wrap;rounded=0;" vertex="1" parent="1">
          <mxGeometry x="815" y="-85" width="110" height="30" as="geometry" />
        </mxCell>
        <mxCell id="JhmMYMkdNSG2Nu4x-xCR-103" value="Group consumer 1" style="text;html=1;align=center;verticalAlign=middle;whiteSpace=wrap;rounded=0;" vertex="1" parent="1">
          <mxGeometry x="245" y="710" width="110" height="30" as="geometry" />
        </mxCell>
        <mxCell id="JhmMYMkdNSG2Nu4x-xCR-104" value="Group consumer 2" style="text;html=1;align=center;verticalAlign=middle;whiteSpace=wrap;rounded=0;" vertex="1" parent="1">
          <mxGeometry x="290" y="210" width="110" height="30" as="geometry" />
        </mxCell>
        <mxCell id="JhmMYMkdNSG2Nu4x-xCR-105" value="Group consumer 2" style="text;html=1;align=center;verticalAlign=middle;whiteSpace=wrap;rounded=0;" vertex="1" parent="1">
          <mxGeometry x="815" y="205" width="110" height="30" as="geometry" />
        </mxCell>
        <mxCell id="JhmMYMkdNSG2Nu4x-xCR-106" value="Group consumer 2" style="text;html=1;align=center;verticalAlign=middle;whiteSpace=wrap;rounded=0;" vertex="1" parent="1">
          <mxGeometry x="632.5" y="710" width="110" height="30" as="geometry" />
        </mxCell>
        <mxCell id="JhmMYMkdNSG2Nu4x-xCR-107" value="" style="endArrow=classic;html=1;rounded=0;exitX=0.5;exitY=1;exitDx=0;exitDy=0;entryX=0.5;entryY=0;entryDx=0;entryDy=0;" edge="1" parent="1" source="JhmMYMkdNSG2Nu4x-xCR-36" target="JhmMYMkdNSG2Nu4x-xCR-71">
          <mxGeometry width="50" height="50" relative="1" as="geometry">
            <mxPoint x="560" y="230" as="sourcePoint" />
            <mxPoint x="610" y="180" as="targetPoint" />
          </mxGeometry>
        </mxCell>
        <mxCell id="JhmMYMkdNSG2Nu4x-xCR-108" value="" style="endArrow=classic;html=1;rounded=0;exitX=0.5;exitY=1;exitDx=0;exitDy=0;entryX=0.5;entryY=0;entryDx=0;entryDy=0;" edge="1" parent="1" source="JhmMYMkdNSG2Nu4x-xCR-49" target="JhmMYMkdNSG2Nu4x-xCR-71">
          <mxGeometry width="50" height="50" relative="1" as="geometry">
            <mxPoint x="360" y="470" as="sourcePoint" />
            <mxPoint x="520" y="540" as="targetPoint" />
          </mxGeometry>
        </mxCell>
        <mxCell id="JhmMYMkdNSG2Nu4x-xCR-109" value="HTTP Request(&lt;b&gt;idempotemt&lt;/b&gt;)" style="text;html=1;align=center;verticalAlign=middle;whiteSpace=wrap;rounded=0;" vertex="1" parent="1">
          <mxGeometry x="-40" y="-360" width="140" height="80" as="geometry" />
        </mxCell>
        <mxCell id="JhmMYMkdNSG2Nu4x-xCR-113" value="HTTP Request(&lt;b&gt;idempotemt&lt;/b&gt;)" style="text;html=1;align=center;verticalAlign=middle;whiteSpace=wrap;rounded=0;" vertex="1" parent="1">
          <mxGeometry x="730" y="-360" width="140" height="80" as="geometry" />
        </mxCell>
        <mxCell id="JhmMYMkdNSG2Nu4x-xCR-114" value="HTTP Request(&lt;b&gt;idempotemt&lt;/b&gt;)" style="text;html=1;align=center;verticalAlign=middle;whiteSpace=wrap;rounded=0;" vertex="1" parent="1">
          <mxGeometry x="660" y="-240" width="140" height="80" as="geometry" />
        </mxCell>
        <mxCell id="JhmMYMkdNSG2Nu4x-xCR-115" value="HTTP Request(&lt;b&gt;idempotemt&lt;/b&gt;)" style="text;html=1;align=center;verticalAlign=middle;whiteSpace=wrap;rounded=0;" vertex="1" parent="1">
          <mxGeometry x="280" y="-220" width="140" height="80" as="geometry" />
        </mxCell>
        <mxCell id="JhmMYMkdNSG2Nu4x-xCR-119" value="" style="shape=image;verticalLabelPosition=bottom;labelBackgroundColor=default;verticalAlign=top;aspect=fixed;imageAspect=0;image=data:image/png,iVBORw0KGgoAAAANSUhEUgAAAOEAAADhCAMAAAAJbSJIAAAA0lBMVEX////qGyL+9PT8///pAAD6+/vqFBzgW17ZSk3tExvaubrzChXy4+PgAAb08fHqR0vZXWDUaWzzo6Xaq63uChXy+PfgxMTsAADqKTDi0NHrExvyAADqAAzon6Hes7TlfoHekpToXmHfOj/ib3LhSU3leHry6OjQQkbskJHeJy7ZT1LWY2fRhIbth4nSfH/cDRnosLHoNTrggoXud3vboaPZtrju09ToUVbZuLny2tvjj5H1NTv66uvpvL3mkpX329ztbG/Xk5TtSk/bPULbLTLznJ5ryh+7AAAGqklEQVR4nO2YW2ObOBCFoYAcYkK8G2IcjC/xbRun29iO69TZOu022f//lxaNwNwk4bb7tudrH1oYj+ZIo9EIwwAAAAAAAAAAAAAAAAAAAAAAAAAAAAAAAAAAAAAAAAAAAAAAAAAAAAAAAAAAAAAAAAAAAAAAkGA5EqyKkcxGaljy/O6d8+NDO8fhfj784k9vBvPWWY3WfHBTdLP4o24j6Lzvqsb25xf23UA5Bf7wfWdZdzi7twz/nv/jQ7O8xdWfHUlQs4/HQQYP/diNWI3Ijft3A//oybuo26SWQf/tIFcwiU2ThVN5bN1WGAaykYNkxvxLl7H4tyZ9hzO5DzfyUovVOolBCQvWw1yh1nAkS6hRQG9t2Rp708CVO2tv+ORcMtN0GxTuW+1I4WMgLJxRwDRxU+gb5wSFphnPJYuUDs8mfv3dOlANOVmcqPDQU/lwl2JEaxqmD4J2jWyGw7lTUOjWDdvCMFxVA7DesukLxzWBZpTOYM1dnzL+BIVX6fJEdR/BTphs+mL83uP203mFz9vHB6E/3OQKg1HV7vx8OIpEtItKBGP6Pelnu/IrL6TgXPvpZVgdWKR0s8KuCC+wb8fV6D+nw61EBL1VPYfEIFtGoQero8L4d5mhN+F28Uv56Z52OLvnEt2n0jb1xera0726zDYp9Bn3weK5p/SxWHMT97I69cUgZzw8tuYmGoXGnqaqVZopp+XSovskPxgU3z3HYuY0J2mTQouqGGNDpUU6THSpWECB90rh8dXRKTQ6XM1fX4qPVtw96/nGIa7msNfLU0NFk0KRIdIqneHQMOaNxiRhR456VoPCKypqXuHJosczJF7xesZfBp383Qt3GihOyZQmhbSEwbPOBU1tPNYOk4S34Z763R9W2BGyeB4uRME65pNPub/W7A6jUeFiwvi5ou3qnimPPZ0JubLTIqJVOK1m6aFNObqn/2zD427mfKUcHenHbVC4owkcWNcqEu1LPgm3za3ta2IXfbO0CmljRct8S/tUxcK0vFiXVGszTedUgnQ7qFnhlpLmrKMkWbq7EyaSM0/iYTNHp9Bf8pjbL3lppCrGXrP569KhGB2K0X2p+/kBhR/JR+Qq6HNh3KL9d7PC94FI+KNCr3tTZiCapyDP+J1NhW6f/d8accVuum3G3Lz3awqnqn6NEG0iT6xg/DMKJ2FQIqbjO8xny6FSEmxyJ+LsbW/+M4VzrcKQtsCEz+pjs8L7ZA+xZTFL/VvJfSS4zX8yphxdF0/aVWFVqfC6e0NLg8IPpJAFUvpTK4vc1J/3HOshnYnCPnSmNYnxt7xm7YXk0oEuOhyXKtuOVnj7SwqHvFZHm+GVFFG1BzzKcKdykUH9bbytnBZpz55mvds3C02ZdUYKOlaJBU26zWVT5XVbuo8fjQq/8qxvKJQ3fA2jhnEMZ8nNQq96Hl7105vR9/X6++NVKSFFz+8N3V6BdTodiSfrG6Wp/LPAiQqvqXwzfao/RSckC610dFbv2g7igsfG1375TF1QN5gchU4rMJn4Q39F7vIuR7Sskmvx6QpFFxHNtAt0EJtVO5UrERa3qZ6HuzUdcvFzpWmYi4Y+eerZkjLHt6do24KOrt1oUih6Clv68SSDzzH/TrRVzoM1Fgddy5AoNPYTehtOS2sh5i2mcv0iqbn8tmEcKJHjlqZnbLwfis0Q3uvaW1HzzHC2+uJYNZzF1SQUMXlShYb/RAriSWEQf0JXClECrFe7hLgV8ncjcfm+2NxIRk7IFUpfk0lLTD979lQ+kjop0ogF7murxsQVJzlLmy1J12aJU8M18x5zUzoKF90SQzGjibX11BY5275b1odund0Ihea6I3lLFufJZAapjzeZjyVFMGTZ17B6a5eWBjfbqLK+1BGXdcays28nclS1t0W7OvN519BO01bSW7Zv0zVMhpfTfkp8eLPUB5P5SDsq9Te9rDBMshNT2nlbW7HV4vS79ozq81S1sx2Tmjf+ycDXfMjkl65UoYKYolpMY5VR3lEtNrbSymSx/XwsI4q7xcGmn8fzayMt4aarLiArMSF0jB3e+vJPwnQtd241c58tkHV46Ms/CbcLHZU/PrPlXDxtC2XSu0gehf/Ugt49kHH44CVXCk5fc8RaLbJNLxnd+Z1k2HBJb/emIqwEdjwjrE/TB5mPcho57xSUzxrJo/w5J3OkFmhUTCzp0E7Fr4TipJ0QOgAAAAAAAAAAAAAAAAAAAAAAAAAAAAAAAAAAAAAAAAAAAAAAAAAAAAAAAAAAAAAAAAAAAAD8z/gXz/uc2343yYcAAAAASUVORK5CYII=;" vertex="1" parent="1">
          <mxGeometry x="456.25" y="-430" width="90" height="90" as="geometry" />
        </mxCell>
      </root>
    </mxGraphModel>
  </diagram>
</mxfile>
